<svg height="48" viewBox="0 0 48 48" width="48" xmlns="http://www.w3.org/2000/svg"><g fill="none" fill-rule="evenodd"><circle cx="24" cy="24" fill="#000" r="20"/><path d="m14.4348009 34h4.347811v-13.4782673h-4.347811zm14.7825871-13.4782673c-2.0831631 0-3.2624176.690594-3.91301 1.5972277v-1.5972277h-4.3478111v13.4782673h4.3478111v-7.550495c.2328212-2.0227723.953859-2.3217327 2.1995984-2.449505 1.9489061-.1998515 2.1482126 1.225297 2.1482126 2.6087129v7.3912871h4.347811s0-5.9947525 0-7.3122772c0-2.0014357-.2531677-6.1659901-4.782612-6.1659901zm-12.6086816-6.5217327c-1.3367294 0-2.6087064 1.265198-2.6087064 2.6087129 0 1.3435148 1.2719771 2.6087128 2.6087064 2.6087128s2.6087064-1.265198 2.6087064-2.6087128c0-1.3435149-1.2719275-2.6087129-2.6087064-2.6087129z" fill="#fff" fill-rule="nonzero"/></g></svg>