<?xml version="1.0" encoding="UTF-8"?>
<svg width="2560px" height="1224px" viewBox="0 0 2560 1224" version="1.1" xmlns="http://www.w3.org/2000/svg" xmlns:xlink="http://www.w3.org/1999/xlink">
    <!-- Generator: Sketch 57.1 (83088) - https://sketch.com -->
    <title>编组</title>
    <desc>Created with Sketch.</desc>
    <defs>
        <linearGradient x1="6.14486771%" y1="57.3196546%" x2="90.6874403%" y2="57.3196546%" id="linearGradient-1">
            <stop stop-color="#DF6720" offset="0%"></stop>
            <stop stop-color="#FFF300" offset="17.9265203%"></stop>
            <stop stop-color="#78FE03" offset="33.07649%"></stop>
            <stop stop-color="#FFFFFF" offset="100%"></stop>
        </linearGradient>
    </defs>
    <g id="realme-8_overview" stroke="none" stroke-width="1" fill="none" fill-rule="evenodd">
        <g id="09_AMOLED-fullscreen01">
            <g id="bg">
                <g>
                    <g id="编组" transform="translate(-30.000000, 0.000000)">
                        <path d="M2623,0 L2623,1224 L63,1224 L63,0 L2623,0 Z M912.12,541.89 C898.32,541.89 885.67,550.63 885.67,565.81 C885.67,581.105 897.63,586.28 909.935,589.845 C921.895,593.295 927.3,595.595 927.3,601.575 C927.3,606.06 923.965,610.085 914.42,610.085 C904.415,610.085 898.78,605.255 895.905,597.78 L882.335,605.715 C886.705,617.675 897.515,625.61 913.96,625.61 C931.095,625.61 943.17,616.41 943.17,601.345 C943.17,584.9 929.6,580.645 916.835,576.62 C904.645,572.94 901.54,570.295 901.54,565.35 C901.54,560.75 905.45,557.3 912.12,557.3 C920.285,557.3 924.655,561.555 927.53,567.65 L940.87,559.945 C935.465,548.675 925.345,541.89 912.12,541.89 Z M971.46,543.5 L955.705,543.5 L955.705,597.665 C955.705,615.03 968.815,625.61 986.41,625.61 C1004.12,625.61 1017.23,615.03 1017.23,597.665 L1017.23,543.5 L1001.36,543.5 L1001.36,596.4 C1001.36,604.22 997.22,610.085 986.41,610.085 C975.6,610.085 971.46,604.22 971.46,596.4 L971.46,543.5 Z M1488.385,541.89 C1465.155,541.89 1446.64,560.175 1446.64,583.75 C1446.64,607.21 1465.155,625.61 1488.385,625.61 C1511.615,625.61 1530.245,607.21 1530.245,583.75 C1530.245,560.175 1511.615,541.89 1488.385,541.89 Z M1064.38,543.5 L1034.365,543.5 L1034.365,624 L1050.235,624 L1050.235,597.55 L1064.38,597.55 C1079.905,597.55 1091.865,585.59 1091.865,570.525 C1091.865,555.46 1079.905,543.5 1064.38,543.5 Z M1154.31,543.5 L1105.09,543.5 L1105.09,624 L1154.885,624 L1154.885,608.82 L1120.96,608.82 L1120.96,590.765 L1151.435,590.765 L1151.435,575.815 L1120.96,575.815 L1120.96,558.68 L1154.31,558.68 L1154.31,543.5 Z M1201.115,543.5 L1168.915,543.5 L1168.915,624 L1184.785,624 L1184.785,596.055 L1196.86,596.055 L1213.075,624 L1230.21,624 L1212.385,593.64 C1221.585,589.385 1227.91,580.3 1227.91,570.18 C1227.91,555.46 1215.95,543.5 1201.115,543.5 Z M1314.735,543.5 L1295.07,543.5 L1266.895,624 L1284.03,624 L1288.86,609.51 L1320.945,609.51 L1325.775,624 L1343.025,624 L1314.735,543.5 Z M1370.05,543.5 L1353.72,543.5 L1353.72,624 L1369.59,624 L1369.59,571.905 L1392.245,609.165 L1394.085,609.165 L1416.74,571.79 L1416.74,624 L1432.495,624 L1432.495,543.5 L1416.165,543.5 L1393.165,581.565 L1370.05,543.5 Z M1560.145,543.5 L1544.275,543.5 L1544.275,624 L1590.85,624 L1590.85,608.82 L1560.145,608.82 L1560.145,543.5 Z M1651.915,543.5 L1602.695,543.5 L1602.695,624 L1652.49,624 L1652.49,608.82 L1618.565,608.82 L1618.565,590.765 L1649.04,590.765 L1649.04,575.815 L1618.565,575.815 L1618.565,558.68 L1651.915,558.68 L1651.915,543.5 Z M1698.49,543.5 L1666.52,543.5 L1666.52,624 L1698.49,624 C1720.685,624 1737.245,606.405 1737.245,583.75 C1737.245,561.095 1720.685,543.5 1698.49,543.5 Z M1488.385,557.3 C1502.99,557.3 1514.375,568.225 1514.375,583.75 C1514.375,599.16 1502.99,610.085 1488.385,610.085 C1473.78,610.085 1462.395,599.16 1462.395,583.75 C1462.395,568.225 1473.78,557.3 1488.385,557.3 Z M1698.49,558.68 C1712.405,558.68 1722.065,568.915 1722.065,583.75 C1722.065,598.585 1712.405,608.82 1698.49,608.82 L1682.39,608.82 L1682.39,558.68 L1698.49,558.68 Z M1304.96,561.785 L1316,594.675 L1293.92,594.675 L1304.96,561.785 Z M1064.38,558.335 C1071.165,558.335 1076.11,563.51 1076.11,570.525 C1076.11,577.425 1071.165,582.715 1064.38,582.715 L1050.235,582.715 L1050.235,558.335 L1064.38,558.335 Z M1201.115,558.335 C1207.095,558.335 1212.04,563.51 1212.04,570.18 C1212.04,576.85 1207.095,582.14 1201.115,582.14 L1184.785,582.14 L1184.785,558.335 L1201.115,558.335 Z" id="形状结合" fill="#000000"></path>
                        <path d="M1778.568,625.638 C1761.837,625.638 1750.839,617.565 1746.393,605.397 L1760.199,597.324 C1763.124,604.929 1768.857,609.843 1779.036,609.843 C1788.747,609.843 1792.14,605.748 1792.14,601.185 C1792.14,595.101 1786.641,592.761 1774.473,589.251 C1761.954,585.624 1749.786,580.359 1749.786,564.798 C1749.786,549.354 1762.656,540.462 1776.696,540.462 C1790.151,540.462 1800.447,547.365 1805.946,558.831 L1792.374,566.67 C1789.449,560.469 1785.003,556.14 1776.696,556.14 C1769.91,556.14 1765.932,559.65 1765.932,564.33 C1765.932,569.361 1769.091,572.052 1781.493,575.796 C1794.48,579.891 1808.286,584.22 1808.286,600.951 C1808.286,616.278 1796.001,625.638 1778.568,625.638 Z M1852.278,625.638 C1834.377,625.638 1821.039,614.874 1821.039,597.207 L1821.039,542.1 L1837.068,542.1 L1837.068,595.92 C1837.068,603.876 1841.28,609.843 1852.278,609.843 C1863.276,609.843 1867.488,603.876 1867.488,595.92 L1867.488,542.1 L1883.634,542.1 L1883.634,597.207 C1883.634,614.874 1870.296,625.638 1852.278,625.638 Z M1931.604,542.1 C1947.399,542.1 1959.567,554.268 1959.567,569.595 C1959.567,584.922 1947.399,597.09 1931.604,597.09 L1917.213,597.09 L1917.213,624 L1901.067,624 L1901.067,542.1 L1931.604,542.1 Z M1931.604,581.997 C1938.507,581.997 1943.538,576.615 1943.538,569.595 C1943.538,562.458 1938.507,557.193 1931.604,557.193 L1917.213,557.193 L1917.213,581.997 L1931.604,581.997 Z M1989.168,608.556 L2023.683,608.556 L2023.683,624 L1973.022,624 L1973.022,542.1 L2023.098,542.1 L2023.098,557.544 L1989.168,557.544 L1989.168,574.977 L2020.173,574.977 L2020.173,590.187 L1989.168,590.187 L1989.168,608.556 Z M2082.885,624 L2066.388,595.569 L2054.103,595.569 L2054.103,624 L2037.957,624 L2037.957,542.1 L2070.717,542.1 C2085.81,542.1 2097.978,554.268 2097.978,569.244 C2097.978,579.54 2091.543,588.783 2082.183,593.112 L2100.318,624 L2082.885,624 Z M2054.103,557.193 L2054.103,581.412 L2070.717,581.412 C2076.801,581.412 2081.832,576.03 2081.832,569.244 C2081.832,562.458 2076.801,557.193 2070.717,557.193 L2054.103,557.193 Z M2197.545,624 L2192.631,609.258 L2159.988,609.258 L2155.074,624 L2137.641,624 L2166.306,542.1 L2186.313,542.1 L2215.095,624 L2197.545,624 Z M2165.136,594.165 L2187.6,594.165 L2176.368,560.703 L2165.136,594.165 Z M2306.121,542.1 L2306.121,624 L2290.092,624 L2290.092,570.882 L2267.043,608.907 L2265.171,608.907 L2242.122,570.999 L2242.122,624 L2225.976,624 L2225.976,542.1 L2242.59,542.1 L2266.107,580.827 L2289.507,542.1 L2306.121,542.1 Z M2362.983,625.638 C2339.349,625.638 2320.512,606.918 2320.512,583.05 C2320.512,559.065 2339.349,540.462 2362.983,540.462 C2386.617,540.462 2405.571,559.065 2405.571,583.05 C2405.571,606.918 2386.617,625.638 2362.983,625.638 Z M2362.983,609.843 C2377.842,609.843 2389.425,598.728 2389.425,583.05 C2389.425,567.255 2377.842,556.14 2362.983,556.14 C2348.124,556.14 2336.541,567.255 2336.541,583.05 C2336.541,598.728 2348.124,609.843 2362.983,609.843 Z M2435.991,608.556 L2467.23,608.556 L2467.23,624 L2419.845,624 L2419.845,542.1 L2435.991,542.1 L2435.991,608.556 Z M2495.427,608.556 L2529.942,608.556 L2529.942,624 L2479.281,624 L2479.281,542.1 L2529.357,542.1 L2529.357,557.544 L2495.427,557.544 L2495.427,574.977 L2526.432,574.977 L2526.432,590.187 L2495.427,590.187 L2495.427,608.556 Z M2576.742,542.1 C2599.323,542.1 2616.171,560.001 2616.171,583.05 C2616.171,606.099 2599.323,624 2576.742,624 L2544.216,624 L2544.216,542.1 L2576.742,542.1 Z M2576.742,608.556 C2590.899,608.556 2600.727,598.143 2600.727,583.05 C2600.727,567.957 2590.899,557.544 2576.742,557.544 L2560.362,557.544 L2560.362,608.556 L2576.742,608.556 Z" id="SUPERAMOLED" stroke="url(#linearGradient-1)" stroke-width="0.6" fill-opacity="0" fill="#FFFFFF" fill-rule="nonzero"></path>
                        <path d="M32.568,625.638 C15.837,625.638 4.839,617.565 0.393,605.397 L14.199,597.324 C17.124,604.929 22.857,609.843 33.036,609.843 C42.747,609.843 46.14,605.748 46.14,601.185 C46.14,595.101 40.641,592.761 28.473,589.251 C15.954,585.624 3.786,580.359 3.786,564.798 C3.786,549.354 16.656,540.462 30.696,540.462 C44.151,540.462 54.447,547.365 59.946,558.831 L46.374,566.67 C43.449,560.469 39.003,556.14 30.696,556.14 C23.91,556.14 19.932,559.65 19.932,564.33 C19.932,569.361 23.091,572.052 35.493,575.796 C48.48,579.891 62.286,584.22 62.286,600.951 C62.286,616.278 50.001,625.638 32.568,625.638 Z M106.278,625.638 C88.377,625.638 75.039,614.874 75.039,597.207 L75.039,542.1 L91.068,542.1 L91.068,595.92 C91.068,603.876 95.28,609.843 106.278,609.843 C117.276,609.843 121.488,603.876 121.488,595.92 L121.488,542.1 L137.634,542.1 L137.634,597.207 C137.634,614.874 124.296,625.638 106.278,625.638 Z M185.604,542.1 C201.399,542.1 213.567,554.268 213.567,569.595 C213.567,584.922 201.399,597.09 185.604,597.09 L171.213,597.09 L171.213,624 L155.067,624 L155.067,542.1 L185.604,542.1 Z M185.604,581.997 C192.507,581.997 197.538,576.615 197.538,569.595 C197.538,562.458 192.507,557.193 185.604,557.193 L171.213,557.193 L171.213,581.997 L185.604,581.997 Z M243.168,608.556 L277.683,608.556 L277.683,624 L227.022,624 L227.022,542.1 L277.098,542.1 L277.098,557.544 L243.168,557.544 L243.168,574.977 L274.173,574.977 L274.173,590.187 L243.168,590.187 L243.168,608.556 Z M336.885,624 L320.388,595.569 L308.103,595.569 L308.103,624 L291.957,624 L291.957,542.1 L324.717,542.1 C339.81,542.1 351.978,554.268 351.978,569.244 C351.978,579.54 345.543,588.783 336.183,593.112 L354.318,624 L336.885,624 Z M308.103,557.193 L308.103,581.412 L324.717,581.412 C330.801,581.412 335.832,576.03 335.832,569.244 C335.832,562.458 330.801,557.193 324.717,557.193 L308.103,557.193 Z M451.545,624 L446.631,609.258 L413.988,609.258 L409.074,624 L391.641,624 L420.306,542.1 L440.313,542.1 L469.095,624 L451.545,624 Z M419.136,594.165 L441.6,594.165 L430.368,560.703 L419.136,594.165 Z M560.121,542.1 L560.121,624 L544.092,624 L544.092,570.882 L521.043,608.907 L519.171,608.907 L496.122,570.999 L496.122,624 L479.976,624 L479.976,542.1 L496.59,542.1 L520.107,580.827 L543.507,542.1 L560.121,542.1 Z M616.983,625.638 C593.349,625.638 574.512,606.918 574.512,583.05 C574.512,559.065 593.349,540.462 616.983,540.462 C640.617,540.462 659.571,559.065 659.571,583.05 C659.571,606.918 640.617,625.638 616.983,625.638 Z M616.983,609.843 C631.842,609.843 643.425,598.728 643.425,583.05 C643.425,567.255 631.842,556.14 616.983,556.14 C602.124,556.14 590.541,567.255 590.541,583.05 C590.541,598.728 602.124,609.843 616.983,609.843 Z M689.991,608.556 L721.23,608.556 L721.23,624 L673.845,624 L673.845,542.1 L689.991,542.1 L689.991,608.556 Z M749.427,608.556 L783.942,608.556 L783.942,624 L733.281,624 L733.281,542.1 L783.357,542.1 L783.357,557.544 L749.427,557.544 L749.427,574.977 L780.432,574.977 L780.432,590.187 L749.427,590.187 L749.427,608.556 Z M830.742,542.1 C853.323,542.1 870.171,560.001 870.171,583.05 C870.171,606.099 853.323,624 830.742,624 L798.216,624 L798.216,542.1 L830.742,542.1 Z M830.742,608.556 C844.899,608.556 854.727,598.143 854.727,583.05 C854.727,567.957 844.899,557.544 830.742,557.544 L814.362,557.544 L814.362,608.556 L830.742,608.556 Z" id="SUPERAMOLED" stroke="url(#linearGradient-1)" stroke-width="0.6" fill-opacity="0" fill="#FFFFFF" fill-rule="nonzero"></path>
                    </g>
                </g>
            </g>
        </g>
    </g>
</svg>