<?xml version="1.0" encoding="UTF-8"?>
<svg width="1200px" height="400px" viewBox="0 0 1200 400" version="1.1" xmlns="http://www.w3.org/2000/svg" xmlns:xlink="http://www.w3.org/1999/xlink">
    <!-- Generator: Sketch 57.1 (83088) - https://sketch.com -->
    <title>img</title>
    <desc>Created with Sketch.</desc>
    <defs>
        <linearGradient x1="98.3729669%" y1="42.7137779%" x2="0%" y2="55.5336271%" id="linearGradient-1">
            <stop stop-color="#6FFF9F" offset="0%"></stop>
            <stop stop-color="#255EFF" offset="100%"></stop>
        </linearGradient>
        <path d="M1179.3999,219 C1186.53205,219 1189.11834,219.742605 1191.72574,221.137062 C1194.33315,222.531518 1196.37946,224.577827 1197.77392,227.185234 C1199.16837,229.792642 1199.91098,232.378932 1199.91098,239.511082 L1199.91098,378.669099 C1199.91098,385.801248 1199.16837,388.387538 1197.77392,390.994946 C1196.37946,393.602353 1194.33315,395.648662 1191.72574,397.043119 C1189.11834,398.437575 1186.53205,399.18018 1179.3999,399.18018 L847.511082,399.18018 C840.378932,399.18018 837.792642,398.437575 835.185234,397.043119 C832.577827,395.648662 830.531518,393.602353 829.137062,390.994946 C827.742605,388.387538 827,385.801248 827,378.669099 L827,239.511082 C827,232.378932 827.742605,229.792642 829.137062,227.185234 C830.531518,224.577827 832.577827,222.531518 835.185234,221.137062 C837.792642,219.742605 840.378932,219 847.511082,219 L1179.3999,219 Z M353.399896,218 C360.532046,218 363.118336,218.742605 365.725743,220.137062 C368.333151,221.531518 370.379459,223.577827 371.773916,226.185234 C373.168373,228.792642 373.910978,231.378932 373.910978,238.511082 L373.910978,377.669099 C373.910978,384.801248 373.168373,387.387538 371.773916,389.994946 C370.379459,392.602353 368.333151,394.648662 365.725743,396.043119 C363.118336,397.437575 360.532046,398.18018 353.399896,398.18018 L21.5110816,398.18018 C14.3789317,398.18018 11.7926418,397.437575 9.18523437,396.043119 C6.57782696,394.648662 4.53151837,392.602353 3.13706163,389.994946 C1.74260489,387.387538 1,384.801248 1,377.669099 L1,238.511082 C1,231.378932 1.74260489,228.792642 3.13706163,226.185234 C4.53151837,223.577827 6.57782696,221.531518 9.18523437,220.137062 C11.7926418,218.742605 14.3789317,218 21.5110816,218 L353.399896,218 Z M765.399896,218 C772.532046,218 775.118336,218.742605 777.725743,220.137062 C780.333151,221.531518 782.379459,223.577827 783.773916,226.185234 C785.168373,228.792642 785.910978,231.378932 785.910978,238.511082 L785.910978,377.669099 C785.910978,384.801248 785.168373,387.387538 783.773916,389.994946 C782.379459,392.602353 780.333151,394.648662 777.725743,396.043119 C775.118336,397.437575 772.532046,398.18018 765.399896,398.18018 L433.511082,398.18018 C426.378932,398.18018 423.792642,397.437575 421.185234,396.043119 C418.577827,394.648662 416.531518,392.602353 415.137062,389.994946 C413.742605,387.387538 413,384.801248 413,377.669099 L413,238.511082 C413,231.378932 413.742605,228.792642 415.137062,226.185234 C416.531518,223.577827 418.577827,221.531518 421.185234,220.137062 C423.792642,218.742605 426.378932,218 433.511082,218 L765.399896,218 Z M352.399896,-1.12466331e-11 C359.532046,-1.12732817e-11 362.118336,0.742604889 364.725743,2.13706163 C367.333151,3.53151837 369.379459,5.57782696 370.773916,8.18523437 C372.168373,10.7926418 372.910978,13.3789317 372.910978,20.5110816 L372.910978,159.669099 C372.910978,166.801248 372.168373,169.387538 370.773916,171.994946 C369.379459,174.602353 367.333151,176.648662 364.725743,178.043119 C362.118336,179.437575 359.532046,180.18018 352.399896,180.18018 L20.5110816,180.18018 C13.3789317,180.18018 10.7926418,179.437575 8.18523437,178.043119 C5.57782696,176.648662 3.53151837,174.602353 2.13706163,171.994946 C0.742604889,169.387538 -4.7294963e-10,166.801248 -4.72950504e-10,159.669099 L-4.72949399e-10,20.5110816 C-4.72950272e-10,13.3789317 0.742604889,10.7926418 2.13706163,8.18523437 C3.53151837,5.57782696 5.57782696,3.53151837 8.18523437,2.13706163 C10.7926418,0.742604889 13.3789317,-1.12630068e-11 20.5110816,-1.1264317e-11 L352.399896,-1.12466331e-11 Z M765.944407,-1.12786862e-11 C773.076557,-1.12546579e-11 775.662847,0.742604889 778.270254,2.13706163 C780.877662,3.53151837 782.92397,5.57782696 784.318427,8.18523437 C785.712884,10.7926418 786.455489,13.3789317 786.455489,20.5110816 L786.455489,159.669099 C786.455489,166.801248 785.712884,169.387538 784.318427,171.994946 C782.92397,174.602353 780.877662,176.648662 778.270254,178.043119 C775.662847,179.437575 773.076557,180.18018 765.944407,180.18018 L434.055593,180.18018 C426.923443,180.18018 424.337153,179.437575 421.729746,178.043119 C419.122338,176.648662 417.07603,174.602353 415.681573,171.994946 C414.287116,169.387538 413.544511,166.801248 413.544511,159.669099 L413.544511,20.5110816 C413.544511,13.3789317 414.287116,10.7926418 415.681573,8.18523437 C417.07603,5.57782696 419.122338,3.53151837 421.729746,2.13706163 C424.337153,0.742604889 426.923443,-1.12630068e-11 434.055593,-1.1264317e-11 L765.944407,-1.12786862e-11 Z M1179.3999,-1.12466331e-11 C1186.53205,-1.12732817e-11 1189.11834,0.742604889 1191.72574,2.13706163 C1194.33315,3.53151837 1196.37946,5.57782696 1197.77392,8.18523437 C1199.16837,10.7926418 1199.91098,13.3789317 1199.91098,20.5110816 L1199.91098,159.669099 C1199.91098,166.801248 1199.16837,169.387538 1197.77392,171.994946 C1196.37946,174.602353 1194.33315,176.648662 1191.72574,178.043119 C1189.11834,179.437575 1186.53205,180.18018 1179.3999,180.18018 L847.511082,180.18018 C840.378932,180.18018 837.792642,179.437575 835.185234,178.043119 C832.577827,176.648662 830.531518,174.602353 829.137062,171.994946 C827.742605,169.387538 827,166.801248 827,159.669099 L827,20.5110816 C827,13.3789317 827.742605,10.7926418 829.137062,8.18523437 C830.531518,5.57782696 832.577827,3.53151837 835.185234,2.13706163 C837.792642,0.742604889 840.378932,-1.12630068e-11 847.511082,-1.1264317e-11 L1179.3999,-1.12466331e-11 Z" id="path-2"></path>
    </defs>
    <g id="realme-8_overview" stroke="none" stroke-width="1" fill="none" fill-rule="evenodd">
        <g id="realme-8_2560_pc" transform="translate(-681.000000, -26211.000000)">
            <g id="023_Test" transform="translate(1.000000, 25974.000000)">
                <g id="img" transform="translate(680.000000, 237.000000)">
                    <mask id="mask-3" fill="white">
                        <use xlink:href="#path-2"></use>
                    </mask>
                    <g id="形状结合">
                        <use fill="#FFFFFF" xlink:href="#path-2"></use>
                        <use fill-opacity="0.44" fill="url(#linearGradient-1)" xlink:href="#path-2"></use>
                    </g>
                </g>
            </g>
        </g>
    </g>
</svg>