<?xml version="1.0" encoding="UTF-8"?>
<svg width="335px" height="263px" viewBox="0 0 335 263" version="1.1" xmlns="http://www.w3.org/2000/svg" xmlns:xlink="http://www.w3.org/1999/xlink">
    <!-- Generator: Sketch 57.1 (83088) - https://sketch.com -->
    <title>img</title>
    <desc>Created with Sketch.</desc>
    <defs>
        <linearGradient x1="100%" y1="19.4044828%" x2="0%" y2="80.5955172%" id="linearGradient-1">
            <stop stop-color="#D9FFE5" offset="0%"></stop>
            <stop stop-color="#81A2FF" offset="100%"></stop>
        </linearGradient>
        <linearGradient x1="98.3729669%" y1="9.71435572%" x2="0%" y2="80.5955172%" id="linearGradient-2">
            <stop stop-color="#6FFF9F" offset="0%"></stop>
            <stop stop-color="#255EFF" offset="100%"></stop>
        </linearGradient>
        <path d="M325.769956,185.075 C328.80112,185.075 329.900293,185.390607 331.008441,185.983251 C332.116589,186.575895 332.98627,187.445576 333.578914,188.553725 C334.171558,189.661873 334.487165,190.761046 334.487165,193.79221 L334.487165,252.934367 C334.487165,255.965531 334.171558,257.064704 333.578914,258.172852 C332.98627,259.281 332.116589,260.150681 331.008441,260.743325 C329.900293,261.335969 328.80112,261.651577 325.769956,261.651577 L184.71721,261.651577 C181.686046,261.651577 180.586873,261.335969 179.478725,260.743325 C178.370576,260.150681 177.500895,259.281 176.908251,258.172852 C176.315607,257.064704 176,255.965531 176,252.934367 L176,193.79221 C176,190.761046 176.315607,189.661873 176.908251,188.553725 C177.500895,187.445576 178.370576,186.575895 179.478725,185.983251 C180.586873,185.390607 181.686046,185.075 184.71721,185.075 L325.769956,185.075 Z M150.244956,185 C153.27612,185 154.375293,185.315607 155.483441,185.908251 C156.591589,186.500895 157.46127,187.370576 158.053914,188.478725 C158.646558,189.586873 158.962165,190.686046 158.962165,193.71721 L158.962165,252.859367 C158.962165,255.890531 158.646558,256.989704 158.053914,258.097852 C157.46127,259.206 156.591589,260.075681 155.483441,260.668325 C154.375293,261.260969 153.27612,261.576577 150.244956,261.576577 L9.19220968,261.576577 C6.16104596,261.576577 5.06187276,261.260969 3.95372461,260.668325 C2.84557646,260.075681 1.97589531,259.206 1.38325119,258.097852 C0.790607077,256.989704 0.475,255.890531 0.475,252.859367 L0.475,193.71721 C0.475,190.686046 0.790607077,189.586873 1.38325119,188.478725 C1.97589531,187.370576 2.84557646,186.500895 3.95372461,185.908251 C5.06187276,185.315607 6.16104596,185 9.19220968,185 L150.244956,185 Z M150.194956,92.65 C153.22612,92.65 154.325293,92.9656071 155.433441,93.5582512 C156.541589,94.1508953 157.41127,95.0205765 158.003914,96.1287246 C158.596558,97.2368728 158.912165,98.336046 158.912165,101.36721 L158.912165,160.509367 C158.912165,163.540531 158.596558,164.639704 158.003914,165.747852 C157.41127,166.856 156.541589,167.725681 155.433441,168.318325 C154.325293,168.910969 153.22612,169.226577 150.194956,169.226577 L9.14220968,169.226577 C6.11104596,169.226577 5.01187276,168.910969 3.90372461,168.318325 C2.79557646,167.725681 1.92589531,166.856 1.33325119,165.747852 C0.740607077,164.639704 0.425,163.540531 0.425,160.509367 L0.425,101.36721 C0.425,98.336046 0.740607077,97.2368728 1.33325119,96.1287246 C1.92589531,95.0205765 2.79557646,94.1508953 3.90372461,93.5582512 C5.01187276,92.9656071 6.11104596,92.65 9.14220968,92.65 L150.194956,92.65 Z M325.294956,92.65 C328.32612,92.65 329.425293,92.9656071 330.533441,93.5582512 C331.641589,94.1508953 332.51127,95.0205765 333.103914,96.1287246 C333.696558,97.2368728 334.012165,98.336046 334.012165,101.36721 L334.012165,160.509367 C334.012165,163.540531 333.696558,164.639704 333.103914,165.747852 C332.51127,166.856 331.641589,167.725681 330.533441,168.318325 C329.425293,168.910969 328.32612,169.226577 325.294956,169.226577 L184.24221,169.226577 C181.211046,169.226577 180.111873,168.910969 179.003725,168.318325 C177.895576,167.725681 177.025895,166.856 176.433251,165.747852 C175.840607,164.639704 175.525,163.540531 175.525,160.509367 L175.525,101.36721 C175.525,98.336046 175.840607,97.2368728 176.433251,96.1287246 C177.025895,95.0205765 177.895576,94.1508953 179.003725,93.5582512 C180.111873,92.9656071 181.211046,92.65 184.24221,92.65 L325.294956,92.65 Z M149.769956,-1.09135842e-11 C152.80112,-1.09141411e-11 153.900293,0.315607078 155.008441,0.908251193 C156.116589,1.50089531 156.98627,2.37057646 157.578914,3.47872461 C158.171558,4.58687276 158.487165,5.68604596 158.487165,8.71720968 L158.487165,67.8593669 C158.487165,70.8905306 158.171558,71.9897038 157.578914,73.097852 C156.98627,74.2060001 156.116589,75.0756813 155.008441,75.6683254 C153.900293,76.2609695 152.80112,76.5765766 149.769956,76.5765766 L8.71720968,76.5765766 C5.68604596,76.5765766 4.58687276,76.2609695 3.47872461,75.6683254 C2.37057646,75.0756813 1.50089531,74.2060001 0.908251192,73.097852 C0.315607077,71.9897038 -4.72938162e-10,70.8905306 -4.72935666e-10,67.8593669 L-4.7293701e-10,8.71720968 C-4.72937381e-10,5.68604596 0.315607077,4.58687276 0.908251192,3.47872461 C1.50089531,2.37057646 2.37057646,1.50089531 3.47872461,0.908251193 C4.58687276,0.315607078 5.68604596,-1.09134683e-11 8.71720968,-1.0914742e-11 L149.769956,-1.09135842e-11 Z M325.526373,-1.09135842e-11 C328.557537,-1.09141411e-11 329.65671,0.315607078 330.764858,0.908251193 C331.873006,1.50089531 332.742687,2.37057646 333.335332,3.47872461 C333.927976,4.58687276 334.243583,5.68604596 334.243583,8.71720968 L334.243583,67.8593669 C334.243583,70.8905306 333.927976,71.9897038 333.335332,73.097852 C332.742687,74.2060001 331.873006,75.0756813 330.764858,75.6683254 C329.65671,76.2609695 328.557537,76.5765766 325.526373,76.5765766 L184.473627,76.5765766 C181.442463,76.5765766 180.34329,76.2609695 179.235142,75.6683254 C178.126994,75.0756813 177.257313,74.2060001 176.664668,73.097852 C176.072024,71.9897038 175.756417,70.8905306 175.756417,67.8593669 L175.756417,8.71720968 C175.756417,5.68604596 176.072024,4.58687276 176.664668,3.47872461 C177.257313,2.37057646 178.126994,1.50089531 179.235142,0.908251193 C180.34329,0.315607078 181.442463,-1.09134683e-11 184.473627,-1.0914742e-11 L325.526373,-1.09135842e-11 Z" id="path-3"></path>
    </defs>
    <g id="realme-8_overview" stroke="none" stroke-width="1" fill="none" fill-rule="evenodd">
        <g id="realme-8_mobile" transform="translate(-12.000000, -15303.000000)">
            <g id="023_Test" transform="translate(0.000000, 15168.000000)">
                <g id="img" transform="translate(12.000000, 135.900000)">
                    <mask id="mask-4" fill="white">
                        <use xlink:href="#path-3"></use>
                    </mask>
                    <g id="形状结合">
                        <use fill="#FFFFFF" xlink:href="#path-3"></use>
                        <use fill-opacity="0.3" fill="url(#linearGradient-1)" xlink:href="#path-3"></use>
                        <use fill-opacity="0.44" fill="url(#linearGradient-2)" xlink:href="#path-3"></use>
                    </g>
                </g>
            </g>
        </g>
    </g>
</svg>