<?xml version="1.0" encoding="UTF-8"?>
<svg width="362px" height="68px" viewBox="0 0 362 68" version="1.1" xmlns="http://www.w3.org/2000/svg" xmlns:xlink="http://www.w3.org/1999/xlink">
    <!-- Generator: Sketch 57.1 (83088) - https://sketch.com -->
    <title>编组</title>
    <desc>Created with Sketch.</desc>
    <defs>
        <polygon id="path-1" points="0 0.085975 295.363388 0.085975 295.363388 67.0531638 0 67.0531638"></polygon>
        <polygon id="path-3" points="0.539133913 0.344457143 36.1863652 0.344457143 36.1863652 53.1138143 0.539133913 53.1138143"></polygon>
    </defs>
    <g id="realme-8_overview" stroke="none" stroke-width="1" fill="none" fill-rule="evenodd">
        <g id="realme-8_2560_pc" transform="translate(-1423.000000, -421.000000)">
            <g id="1_kv" transform="translate(0.000000, 1.000000)">
                <g id="编组" transform="translate(1423.000000, 420.000000)">
                    <g>
                        <mask id="mask-2" fill="white">
                            <use xlink:href="#path-1"></use>
                        </mask>
                        <g id="Clip-2"></g>
                        <path d="M97.2583377,40.8057887 C97.2583377,30.4107887 104.669928,22.5720137 114.500384,22.5720137 C124.694843,22.5720137 131.545163,29.8981262 131.545163,40.8057887 C131.545163,51.6520262 124.694843,58.9427012 114.500384,58.9427012 C104.669928,58.9427012 97.2583377,51.1440887 97.2583377,40.8057887 L97.2583377,40.8057887 Z M114.892569,67.0531637 C120.782388,67.0531637 126.383352,65.0828387 130.561178,61.5934262 L130.561178,66.2617262 L138.526994,66.2617262 L138.526994,15.2506263 L130.561178,15.2506263 L130.561178,19.9425513 C126.310551,16.4389638 120.702542,14.4591888 114.892569,14.4591888 C107.682942,14.4591888 101.119128,17.1571638 96.4058639,22.0546263 C91.7560067,26.8906638 89.1938885,33.5505512 89.1938885,40.8057887 C89.1938885,48.0563012 91.7560067,54.6972887 96.4082123,59.5097012 C101.114431,64.3740887 107.678245,67.0531637 114.892569,67.0531637 L114.892569,67.0531637 Z M148.989173,66.1648637 L157.053622,66.1648637 L157.053622,0.08573875 L148.989173,0.08573875 L148.989173,66.1648637 Z M254.68888,35.2184763 C256.62632,27.3135513 263.415581,21.8798013 271.531696,21.8798013 C279.570312,21.8798013 285.741941,27.1977888 287.162731,35.2184763 L254.68888,35.2184763 Z M271.531696,66.8570762 C281.406771,66.8570762 289.097823,62.5762262 293.775861,54.4752137 L294.179788,53.7782762 L287.268409,49.3084262 L286.826908,50.0667887 C283.179823,56.3226887 278.320957,59.2380137 271.531696,59.2380137 C262.079335,59.2380137 254.813346,52.1198012 254.317831,42.5375012 L295.363388,42.5375012 L295.363388,39.9104012 C295.314071,32.1944762 292.909296,25.6645262 288.407389,21.0269387 C284.170853,16.6634013 278.248156,14.2607388 271.728962,14.2607388 C256.950401,14.2607388 246.227549,25.3432262 246.227549,40.6097012 C246.227549,56.0628137 256.633365,66.8570762 271.531696,66.8570762 L271.531696,66.8570762 Z M8.063275,22.7704638 L31.1552171,22.7704638 L31.1552171,15.1514013 L-0.00117420635,15.1514013 L-0.00117420635,66.2617262 L8.063275,66.2617262 L8.063275,22.7704638 Z M42.6906202,35.2184763 C44.6257123,27.3135513 51.4149734,21.8798013 59.5334361,21.8798013 C67.5697044,21.8798013 73.7436813,27.1977888 75.1621226,35.2184763 L42.6906202,35.2184763 Z M83.3627798,39.9104012 C83.3158115,32.1944762 80.9110369,25.6645262 76.4067813,21.0269387 C72.1702448,16.6634013 66.247548,14.2607388 59.7283544,14.2607388 C44.9521417,14.2607388 34.2269409,25.3432262 34.2269409,40.6097012 C34.2269409,56.0628137 44.6327575,66.8570762 59.5334361,66.8570762 C69.4061631,66.8570762 77.0995631,62.5762262 81.7776012,54.4752137 L82.1791798,53.7782762 L75.2678012,49.3084262 L74.8262996,50.0667887 C71.1792147,56.3226887 66.3203488,59.2380137 59.5334361,59.2380137 C50.0787266,59.2380137 42.8127377,52.1198012 42.3172226,42.5375012 L83.3627798,42.5375012 L83.3627798,39.9104012 Z M175.58025,33.4914888 C175.58025,26.6638638 181.850512,22.0782513 187.71215,22.0782513 C194.830188,22.0782513 199.254598,27.1316388 199.254598,35.2704513 L199.254598,66.1648637 L207.316699,66.1648637 L207.316699,34.2805638 C207.316699,28.3814013 210.557508,22.0782513 219.645865,22.0782513 C226.716936,22.0782513 231.286947,27.2568513 231.286947,35.2704513 L231.286947,66.1648637 L239.349048,66.1648637 L239.349048,35.2704513 C239.349048,22.4326263 232.176996,14.4591888 220.627502,14.4591888 C213.828847,14.4591888 207.946073,17.4005013 204.275504,22.5838263 C201.863685,18.6290013 197.380565,14.4591888 189.184604,14.4591888 C183.647047,14.4591888 178.903254,16.4413263 175.58025,20.0937513 L175.58025,15.1514013 L167.5158,15.1514013 L167.5158,66.1648637 L175.58025,66.1648637 L175.58025,33.4914888 Z" id="Fill-1" fill="#FEFEFE" mask="url(#mask-2)"></path>
                    </g>
                    <g transform="translate(325.600000, 14.300000)">
                        <mask id="mask-4" fill="white">
                            <use xlink:href="#path-3"></use>
                        </mask>
                        <g id="Clip-4"></g>
                        <path d="M18.4011013,29.0756714 C24.5066035,29.0756714 28.3015317,32.2625286 28.3015317,37.3893143 C28.3015317,42.5184571 24.5066035,45.7053143 18.4011013,45.7053143 C12.2482513,45.7053143 8.42491435,42.5184571 8.42491435,37.3893143 C8.42491435,32.2625286 12.2482513,29.0756714 18.4011013,29.0756714 M18.4011013,7.75767143 C23.38446,7.75767143 26.6041122,10.6734571 26.6041122,15.1873857 C26.6041122,19.4420286 23.5383404,21.9806714 18.4011013,21.9806714 C13.2638622,21.9806714 10.1980904,19.4420286 10.1980904,15.1873857 C10.1980904,10.6734571 13.42011,7.75767143 18.4011013,7.75767143 M18.4011013,53.1138143 C29.37396,53.1138143 36.1873122,47.4001 36.1873122,38.2001714 C36.1873122,32.6938857 33.7915122,28.4628143 29.2603252,25.9642429 L28.8152557,25.7214571 L29.2413861,25.4480286 C32.7238187,23.2087429 34.4898926,19.6329571 34.4898926,14.8196714 C34.4898926,4.82067143 26.4099861,0.344457143 18.4011013,0.344457143 C10.3945839,0.344457143 2.31231,4.82067143 2.31231,14.8196714 C2.31231,19.6423857 4.03813826,23.2181714 7.43534478,25.4480286 L7.84963826,25.7214571 L7.41640565,25.9642429 C2.91836217,28.4816714 0.539133913,32.7127429 0.539133913,38.2001714 C0.539133913,47.2586714 7.55134696,53.1138143 18.4011013,53.1138143" id="Fill-3" fill="#FEFEFE" mask="url(#mask-4)"></path>
                    </g>
                </g>
            </g>
        </g>
    </g>
</svg>